<svg width="32" height="32" viewBox="0 0 32 32" fill="none" xmlns="http://www.w3.org/2000/svg">
<g clip-path="url(#clip0_2788_94)">
<path d="M29.8667 0H2.13333C0.955126 0 0 0.955126 0 2.13333V29.8667C0 31.0449 0.955126 32 2.13333 32H29.8667C31.0449 32 32 31.0449 32 29.8667V2.13333C32 0.955126 31.0449 0 29.8667 0Z" fill="#222222"/>
<path d="M9.54468 27.2V15.5636H17.3856V17.592H12.0049V20.3647H16.9822V22.3931H12.0049V25.1716H17.4083V27.2H9.54468ZM29.0744 15.5636V27.2H26.9496L21.887 19.8761H21.8018V27.2H19.3416V15.5636H21.5007L26.5234 22.8818H26.6256V15.5636H29.0744Z" fill="#EBEBE9"/>
</g>
<defs>
<clipPath id="clip0_2788_94">
<rect width="32" height="32" fill="white"/>
</clipPath>
</defs>
</svg>
